<svg id="svg" version="1.1" xmlns="http://www.w3.org/2000/svg" xmlns:xlink="http://www.w3.org/1999/xlink" width="400" height="400" viewBox="0, 0, 400,400"><g id="svgg"><path id="path0" d="M106.523 57.278 C 104.268 58.368,104.400 51.895,104.400 161.448 L 104.400 262.081 105.408 270.301 C 106.545 279.579,106.632 280.038,107.644 282.058 C 108.045 282.860,108.752 284.930,109.214 286.658 C 109.676 288.386,110.388 290.160,110.795 290.600 C 111.203 291.040,111.854 292.210,112.242 293.200 C 112.955 295.017,113.987 296.705,117.484 301.779 C 121.262 307.258,131.238 316.788,135.429 318.922 C 136.105 319.266,136.915 319.858,137.229 320.237 C 137.543 320.617,138.610 321.305,139.600 321.766 C 140.590 322.227,142.059 323.013,142.866 323.513 C 143.672 324.013,145.292 324.703,146.466 325.046 C 147.639 325.388,149.320 326.083,150.200 326.590 C 151.188 327.158,153.943 327.925,157.400 328.593 C 160.480 329.188,164.260 329.927,165.800 330.235 C 168.645 330.804,293.905 330.969,306.396 330.420 L 311.392 330.200 311.979 329.000 C 312.818 327.285,313.014 264.775,312.186 263.173 C 311.017 260.913,315.757 261.067,243.473 260.929 L 176.600 260.801 175.500 259.594 L 174.400 258.387 174.400 159.771 C 174.400 52.166,174.531 57.896,172.054 57.208 C 170.005 56.639,107.708 56.705,106.523 57.278 " stroke="none" fill="#fafafb" fill-rule="evenodd"></path><path id="path1" d="M0.000 200.000 L 0.000 400.000 200.000 400.000 L 400.000 400.000 400.000 200.000 L 400.000 0.000 200.000 0.000 L 0.000 0.000 0.000 200.000 M172.054 57.208 C 174.531 57.896,174.400 52.166,174.400 159.771 L 174.400 258.387 175.500 259.594 L 176.600 260.801 243.473 260.929 C 315.757 261.067,311.017 260.913,312.186 263.173 C 313.014 264.775,312.818 327.285,311.979 329.000 L 311.392 330.200 306.396 330.420 C 293.905 330.969,168.645 330.804,165.800 330.235 C 164.260 329.927,160.480 329.188,157.400 328.593 C 153.943 327.925,151.188 327.158,150.200 326.590 C 149.320 326.083,147.639 325.388,146.466 325.046 C 145.292 324.703,143.672 324.013,142.866 323.513 C 142.059 323.013,140.590 322.227,139.600 321.766 C 138.610 321.305,137.543 320.617,137.229 320.237 C 136.915 319.858,136.105 319.266,135.429 318.922 C 128.524 315.407,115.120 300.537,112.242 293.200 C 111.854 292.210,111.203 291.040,110.795 290.600 C 110.388 290.160,109.676 288.386,109.214 286.658 C 108.752 284.930,108.045 282.860,107.644 282.058 C 106.632 280.038,106.545 279.579,105.408 270.301 L 104.400 262.081 104.400 161.448 C 104.400 51.895,104.268 58.368,106.523 57.278 C 107.708 56.705,170.005 56.639,172.054 57.208 " stroke="none" fill="#3c5ebc" fill-rule="evenodd"></path></g></svg>