<?xml version="1.0" standalone="no"?>
<!DOCTYPE svg PUBLIC "-//W3C//DTD SVG 20010904//EN"
 "http://www.w3.org/TR/2001/REC-SVG-20010904/DTD/svg10.dtd">
<svg version="1.0" xmlns="http://www.w3.org/2000/svg"
 width="600.000000pt" height="600.000000pt" viewBox="0 0 600.000000 600.000000"
 preserveAspectRatio="xMidYMid meet">

<g transform="translate(0.000000,600.000000) scale(0.100000,-0.100000)"
fill="#000000" stroke="none">
<path d="M0 3000 l0 -3000 3000 0 3000 0 0 3000 0 3000 -3000 0 -3000 0 0
-3000z m2205 2933 c33 -14 89 -34 125 -45 120 -38 230 -106 230 -143 0 -7 18
-42 39 -78 105 -172 146 -345 146 -602 -1 -105 -3 -136 -18 -205 -2 -8 -10
-35 -17 -60 -17 -57 -17 -57 -19 -74 0 -8 -8 -22 -17 -30 -8 -9 -12 -16 -8
-16 3 0 1 -7 -7 -16 -12 -14 -14 -14 -25 1 -12 15 -13 15 -10 -7 1 -13 5 -29
9 -35 12 -19 -10 -24 -24 -6 -10 11 -10 14 -2 9 9 -5 11 -2 6 10 -5 15 -7 15
-15 0 -5 -9 -14 -14 -19 -10 -7 4 -5 12 4 22 8 10 25 41 40 70 14 29 28 47 30
40 3 -8 6 -6 6 5 1 9 -4 17 -10 17 -5 0 -7 6 -3 13 4 6 -2 3 -14 -7 -12 -11
-22 -15 -22 -10 0 5 -7 1 -15 -10 -7 -10 -19 -15 -25 -11 -7 5 -9 -2 -4 -22 7
-27 6 -27 -12 -11 -18 16 -21 15 -57 -22 -25 -26 -45 -39 -60 -37 -14 1 -22
-3 -22 -13 0 -8 -4 -18 -10 -22 -5 -4 -7 -10 -3 -13 9 -9 108 55 108 70 0 16
28 40 37 32 3 -4 0 -13 -6 -21 -22 -26 -2 -92 25 -82 7 3 18 -4 24 -15 6 -11
16 -16 22 -13 6 4 8 3 4 -4 -3 -6 -16 -9 -28 -7 -13 3 -30 -5 -46 -20 -21 -21
-23 -27 -11 -42 11 -15 11 -16 -1 -5 -18 15 -41 16 -37 0 1 -6 -9 -15 -23 -19
-14 -4 -18 -8 -10 -9 8 -1 3 -6 -12 -12 -16 -5 -28 -17 -28 -25 0 -8 -6 -13
-13 -10 -7 3 -24 -8 -37 -25 -12 -16 -29 -27 -37 -24 -7 3 -13 1 -13 -5 0 -6
-4 -8 -9 -5 -11 7 -36 -22 -27 -31 9 -10 -33 -35 -46 -27 -6 4 -8 3 -5 -3 4
-5 -4 -21 -16 -34 -12 -13 -21 -27 -19 -31 1 -5 -4 -8 -10 -8 -9 0 -8 -4 2
-10 12 -8 11 -10 -7 -10 -13 0 -23 -4 -23 -9 0 -5 -3 -17 -7 -27 -5 -13 -3
-15 7 -9 9 6 11 4 5 -4 -4 -7 -17 -11 -29 -9 -19 4 -21 1 -17 -39 2 -28 -1
-43 -9 -43 -6 0 -10 -10 -9 -22 4 -32 -9 -67 -37 -105 -13 -17 -24 -36 -24
-42 0 -5 -8 -16 -18 -23 -29 -21 -34 -36 -20 -60 15 -29 18 -108 4 -108 -6 0
-4 -6 5 -13 9 -7 15 -24 15 -38 -1 -25 -1 -25 25 -10 15 8 26 18 23 22 -2 4 9
12 24 18 16 7 42 24 59 39 74 67 92 80 112 87 12 3 19 11 16 16 -4 5 -1 9 5 9
6 0 8 6 4 13 -4 6 2 4 14 -7 39 -34 158 -42 350 -22 170 17 192 15 225 -12 15
-13 28 -14 95 -4 157 24 628 9 762 -24 122 -30 291 -100 307 -127 4 -8 33 -27
63 -42 30 -15 107 -60 170 -100 151 -95 181 -110 269 -139 107 -36 120 -21 44
56 -39 40 -44 49 -33 63 17 21 98 20 131 -3 15 -9 36 -28 46 -41 26 -31 39
-22 46 32 7 52 94 225 141 282 67 82 209 125 298 92 24 -9 72 -21 108 -27 107
-16 162 -37 275 -103 98 -57 159 -118 198 -196 l32 -66 2 -195 c3 -285 -19
-408 -99 -548 -57 -100 -203 -227 -233 -202 -10 8 -14 7 -18 -2 -3 -8 -6 -8
-6 -2 -1 6 6 17 15 24 12 11 15 11 12 0 -2 -7 2 -14 8 -17 25 -9 85 173 83
255 l0 37 -13 -40 c-20 -62 -75 -166 -113 -212 -19 -24 -31 -48 -28 -53 4 -6
1 -9 -5 -8 -7 2 -17 -6 -23 -17 -7 -11 -14 -22 -17 -25 -3 -3 -22 -25 -43 -49
-45 -54 -51 -111 -15 -156 21 -27 21 -27 1 -17 -28 16 -44 59 -51 144 l-7 73
-17 -36 c-10 -20 -25 -42 -35 -50 -9 -8 -14 -9 -10 -2 4 6 2 13 -5 15 -7 3
-11 27 -11 64 0 44 13 97 51 212 29 84 52 159 52 167 0 10 -11 15 -31 15 -25
0 -30 3 -25 16 33 86 32 203 -1 269 -22 41 -22 41 -37 -27 -3 -14 -15 -48 -27
-75 l-21 -48 -14 55 c-19 73 -61 130 -120 160 -38 20 -62 25 -125 25 l-78 0 6
25 c8 35 21 48 67 72 32 16 52 19 102 15 34 -2 76 -11 93 -20 17 -9 31 -11 31
-6 0 5 5 9 11 9 5 0 8 -4 5 -9 -3 -5 1 -11 9 -15 8 -3 18 0 21 6 5 8 17 -1 36
-22 15 -19 28 -30 28 -24 0 6 -16 29 -35 51 -46 54 -107 77 -206 78 -64 0 -81
-4 -111 -25 -20 -13 -35 -27 -33 -30 2 -3 -10 -21 -27 -40 -25 -29 -29 -31
-25 -12 3 12 2 22 -3 22 -4 0 -10 -14 -12 -30 -7 -44 17 -60 86 -60 70 0 95
-15 153 -93 36 -49 48 -76 68 -147 1 -3 5 -40 9 -82 6 -60 5 -83 -7 -106 -8
-17 -13 -42 -12 -57 2 -16 -2 -28 -11 -32 -8 -3 -14 -14 -14 -24 0 -11 -8 -23
-17 -27 -10 -4 -18 -13 -19 -19 -3 -37 -5 -43 -11 -42 -21 3 -33 -2 -27 -13 5
-8 0 -9 -14 -6 -28 8 -38 -8 -20 -29 11 -15 11 -16 -6 -10 -12 5 -22 3 -27 -5
-10 -16 -20 -7 -54 57 -15 28 -34 57 -42 65 -14 13 -14 9 -8 -35 12 -77 14
-108 9 -127 -7 -25 -24 -23 -19 2 2 11 -1 23 -7 26 -7 4 -8 2 -4 -4 5 -8 -2
-12 -21 -13 -24 -2 -25 -2 -5 -6 45 -9 15 -28 -52 -33 -59 -4 -68 -8 -79 -30
-10 -19 -20 -24 -40 -22 -15 1 -26 -1 -25 -5 2 -4 -1 -8 -5 -8 -5 0 -13 -8
-18 -18 -6 -9 -17 -17 -25 -17 -22 0 -48 -27 -31 -33 6 -3 0 -9 -15 -16 -15
-6 -34 -8 -41 -5 -8 3 -19 -2 -26 -10 -7 -8 -18 -13 -26 -10 -7 3 -16 1 -19
-5 -4 -6 -13 -8 -21 -4 -10 3 -15 -1 -15 -13 0 -17 -1 -17 -16 -2 -15 15 -19
15 -40 1 -13 -8 -24 -21 -24 -29 0 -8 -6 -11 -15 -8 -8 4 -22 1 -30 -6 -12
-10 -18 -10 -29 -1 -10 8 -16 9 -21 1 -3 -5 -17 -10 -29 -10 -13 0 -40 -11
-60 -25 -41 -28 -62 -31 -69 -12 -3 6 -6 2 -6 -10 -1 -12 -10 -28 -22 -36 -11
-8 -21 -24 -22 -36 -1 -11 -5 -21 -9 -21 -8 0 -12 16 -8 35 1 6 -4 5 -10 -2
-7 -6 -13 -25 -14 -41 -1 -17 -4 -34 -8 -37 -4 -4 -4 -13 -1 -21 4 -10 -3 -14
-21 -14 -17 0 -26 -5 -26 -15 0 -9 -6 -18 -14 -21 -9 -4 -13 -15 -10 -31 3
-17 1 -22 -7 -18 -8 5 -9 0 -5 -16 7 -24 7 -24 -8 1 -9 14 -15 19 -16 13 0
-16 -30 -17 -67 -1 -15 6 -34 10 -40 9 -13 -2 -17 11 -14 36 1 8 -5 10 -15 6
-13 -5 -15 -2 -9 17 5 15 4 20 -4 16 -6 -4 -11 0 -11 11 0 10 -9 1 -20 -22
-35 -69 -75 -105 -117 -105 -22 0 -22 -1 -6 -45 13 -38 13 -48 2 -62 -27 -32
-91 -53 -166 -53 -68 0 -79 3 -168 50 -52 27 -97 50 -99 50 -3 0 -1 -14 4 -31
l9 -32 -56 7 c-73 9 -174 52 -246 104 -103 77 -268 312 -250 358 5 13 3 15 -7
9 -9 -5 -11 -4 -6 4 4 6 12 9 17 6 5 -4 9 -1 9 4 0 6 9 11 20 11 16 0 19 6 17
39 -1 21 -5 37 -9 35 -3 -2 -16 9 -27 25 -19 27 -20 35 -11 98 7 52 7 70 -3
78 -7 6 -11 20 -9 33 4 24 17 29 26 10 5 -10 7 -10 12 0 3 6 16 12 29 12 13 0
27 4 30 10 3 5 1 10 -4 10 -6 0 -11 16 -11 36 l0 36 42 -3 c26 -2 43 1 46 9 2
6 -3 12 -11 12 -9 0 -19 10 -22 21 -5 15 -10 18 -15 10 -4 -7 -13 -12 -21 -11
-8 1 -24 2 -37 1 -19 -1 -22 -5 -17 -21 6 -18 4 -19 -19 -10 -22 8 -26 7 -26
-8 0 -13 -9 -17 -38 -17 -33 -1 -38 2 -40 24 -3 36 -12 39 -12 3 0 -17 -4 -33
-8 -36 -5 -3 -5 18 -2 45 5 40 3 52 -9 58 -9 5 -21 6 -27 4 -10 -3 -17 15 -31
81 -2 11 3 24 12 29 10 5 14 17 11 33 -3 16 0 27 10 31 8 3 13 12 10 19 -3 8
-1 14 5 14 18 0 50 93 54 155 4 61 -16 136 -42 163 -7 7 -13 18 -13 23 0 17
-43 68 -52 63 -5 -3 -8 -2 -7 3 3 19 -2 22 -25 13 -26 -10 -77 19 -95 55 -9
18 -10 18 -10 -7 -2 -51 15 -77 85 -133 22 -17 36 -41 47 -82 15 -54 14 -131
-2 -143 -3 -3 -17 -39 -30 -80 -14 -41 -31 -88 -40 -105 -8 -16 -16 -39 -18
-50 -2 -10 -10 -29 -18 -42 -8 -12 -15 -27 -15 -34 0 -6 -6 -25 -14 -42 -20
-43 -36 -102 -42 -157 -3 -25 -9 -71 -13 -102 -4 -32 -5 -60 -3 -63 8 -8 9
-54 1 -49 -13 7 -66 -21 -62 -33 3 -7 -8 -15 -24 -18 -15 -4 -34 -9 -42 -11
-12 -4 -12 -2 0 12 11 14 11 18 -6 30 -26 19 -41 18 -58 -6 -14 -20 -47 -19
-47 2 0 6 -8 4 -17 -3 -15 -12 -16 -12 -10 4 5 14 3 18 -10 15 -34 -6 -51 25
-52 97 0 38 -3 70 -5 73 -3 2 -17 5 -30 5 -14 0 -24 3 -21 7 6 9 -44 33 -70
34 -11 0 -23 5 -27 10 -5 7 -8 5 -8 -4 0 -13 -1 -13 -10 0 -9 13 -11 13 -20 0
-6 -9 -10 -10 -10 -3 0 6 5 15 10 18 12 7 4 25 -11 25 -5 0 -9 -5 -9 -11 0 -6
-7 -17 -15 -25 -13 -14 -15 -1 -15 118 0 87 5 152 15 188 8 30 17 80 19 110 3
30 2 44 -1 31 -5 -23 -7 -23 -69 -18 -52 5 -64 4 -64 -8 0 -8 -4 -15 -9 -15
-4 0 -6 12 -3 26 6 32 -10 44 -60 44 -52 0 -48 -20 5 -22 38 -1 39 -2 9 -5
-19 -3 -47 0 -64 6 -26 9 -28 9 -19 -3 10 -12 9 -14 -6 -11 -10 2 -21 4 -25 4
-4 1 -5 7 -2 14 6 16 -25 19 -44 4 -9 -7 -16 -7 -24 1 -9 9 -8 12 7 12 17 0
17 1 2 18 -10 10 -17 31 -17 45 0 17 -5 27 -15 27 -8 0 -15 4 -15 10 0 5 -16
16 -35 24 -27 12 -33 19 -28 33 5 12 -2 9 -22 -10 -17 -15 -35 -27 -41 -27
-20 0 -64 58 -57 77 3 10 -14 -7 -38 -36 -64 -80 -91 -104 -100 -90 -4 7 -15
9 -25 5 -16 -6 -15 -3 4 14 25 23 28 36 10 42 -7 3 -2 7 10 10 12 4 22 2 22
-3 0 -5 5 -9 11 -9 8 0 8 4 2 13 -16 21 -9 75 12 91 18 14 18 15 3 16 -10 0
-18 5 -18 11 0 5 4 8 9 5 5 -3 14 1 21 9 10 12 7 15 -14 21 -14 3 -28 14 -31
23 -4 12 -15 17 -35 16 -16 -1 -27 2 -24 7 3 4 -1 8 -8 8 -10 0 -10 2 1 9 8 5
10 14 6 22 -6 9 -4 11 8 6 11 -4 14 -2 10 8 -3 8 -10 12 -15 9 -6 -4 -2 5 7
20 10 14 14 26 10 26 -5 0 0 9 10 20 10 11 15 20 11 20 -4 0 8 30 28 66 27 47
35 72 29 87 -4 12 -6 27 -4 32 2 6 4 18 6 27 10 47 85 144 158 203 27 22 54
45 60 50 7 6 25 18 40 28 15 10 33 30 40 44 17 38 148 135 164 121 10 -8 12
-7 7 6 -4 11 0 16 12 17 25 2 26 2 49 -7 18 -7 18 -6 6 9 -16 20 -8 22 21 6
18 -10 20 -9 15 5 -4 10 -2 16 6 15 24 -3 38 1 33 10 -3 5 1 12 10 15 8 3 12
2 9 -4 -4 -6 2 -7 18 -1 14 6 28 7 31 4 3 -4 6 -1 6 6 0 7 4 10 9 6 6 -3 24 3
42 14 17 11 37 17 43 15 17 -6 67 21 58 31 -4 5 -2 5 5 1 7 -4 29 4 50 17 21
13 48 27 60 31 12 4 25 16 28 26 4 11 12 17 21 13 7 -3 14 -1 14 5 0 5 20 18
45 29 25 10 45 21 45 26 0 4 12 7 28 8 l27 0 -25 11 c-23 10 -23 11 -5 16 27
6 76 48 67 57 -4 5 3 5 15 2 19 -4 24 0 31 26 9 34 29 36 23 2 -1 -11 -1 -18
1 -15 2 3 9 12 16 21 10 14 10 20 -5 35 -17 17 -17 17 5 12 18 -5 22 -3 18 8
-7 17 10 19 18 2 4 -7 4 -3 2 9 -4 22 19 40 29 23 9 -14 54 22 48 38 -3 7 9
26 26 42 17 17 31 34 31 38 0 5 8 17 19 28 10 11 24 30 30 43 8 14 18 20 28
17 13 -5 14 0 9 31 -5 28 -4 34 3 23 9 -13 11 -13 11 3 0 9 4 17 8 17 5 0 15
18 22 40 7 21 16 37 21 35 4 -3 5 5 1 17 -3 14 -2 19 6 14 7 -4 12 -2 12 3 0
6 -8 11 -17 12 -10 0 -13 3 -7 5 7 3 10 15 7 27 -3 16 -2 18 5 9 6 -9 9 18 8
81 0 52 -3 91 -6 87 -3 -4 -5 13 -5 38 0 44 -47 161 -67 170 -15 7 -8 21 7 16
8 -4 15 -13 15 -20 0 -28 81 -134 102 -134 4 0 8 16 8 35 0 25 -4 33 -14 29
-8 -3 -21 4 -29 16 -9 14 -20 19 -28 15 -9 -6 -11 -2 -7 13 3 12 3 20 -1 19
-4 -1 -19 10 -33 25 -14 15 -27 25 -30 23 -3 -3 -5 8 -4 25 1 26 4 30 22 26
13 -4 27 0 34 8 9 12 7 19 -8 34 -39 39 -172 113 -186 104 -5 -3 -6 -1 -3 5 4
5 -4 15 -16 20 -53 25 -74 32 -104 38 -39 8 -43 20 -8 29 31 8 33 21 3 22 -13
0 -100 4 -194 8 -118 5 -174 5 -178 -3 -5 -7 -15 -7 -31 -1 -22 9 -28 6 -27
-10 0 -3 -12 -6 -26 -6 -90 -5 -176 -15 -193 -24 -10 -6 -19 -8 -19 -4 0 3
-10 0 -22 -8 -13 -8 -31 -17 -40 -21 -14 -5 -15 -2 -6 24 21 62 200 149 306
149 l47 0 -30 -25 -30 -25 28 10 c15 5 27 7 27 5 0 -3 12 3 27 12 58 38 282
36 378 -4z m-139 -158 c190 -82 283 -154 354 -274 67 -116 109 -301 88 -394
-10 -45 -62 -109 -83 -101 -7 3 -19 -1 -27 -8 -7 -7 -24 -19 -37 -26 -20 -12
-25 -12 -32 0 -6 9 -9 9 -9 1 0 -7 7 -16 15 -21 11 -6 5 -8 -21 -9 -20 -1 -41
-6 -47 -12 -14 -14 -30 -14 -22 -1 3 6 1 10 -4 10 -6 0 -11 -7 -11 -15 0 -10
-10 -15 -34 -15 -19 0 -38 -4 -41 -10 -4 -6 1 -7 11 -3 11 4 15 2 11 -4 -6
-10 -34 -17 -112 -30 -16 -3 -33 -10 -36 -15 -4 -6 -15 -8 -24 -4 -10 3 -24 1
-31 -5 -11 -9 -14 -8 -14 2 0 10 -3 10 -12 1 -7 -7 -21 -12 -33 -12 -11 0 -31
-7 -43 -16 -12 -8 -26 -13 -31 -9 -5 3 -13 1 -16 -5 -4 -6 -16 -8 -27 -4 -15
4 -18 3 -13 -6 5 -8 4 -11 -1 -7 -5 3 -39 -1 -74 -9 -36 -8 -84 -19 -107 -24
-23 -5 -50 -13 -60 -18 -53 -27 -130 -51 -225 -69 -16 -3 -28 -10 -28 -15 0
-6 -9 -8 -20 -5 -11 3 -20 1 -20 -4 0 -4 -7 -6 -15 -3 -8 4 -23 0 -32 -7 -9
-8 -14 -9 -10 -2 5 7 0 9 -13 6 -11 -3 -17 -9 -14 -14 3 -5 0 -9 -6 -9 -7 0
-25 -11 -42 -25 -16 -14 -36 -25 -44 -25 -8 0 -14 -5 -14 -12 0 -6 -2 -9 -5
-6 -3 3 -45 -14 -93 -38 -48 -23 -88 -41 -89 -40 -5 5 44 141 66 183 11 23 21
44 21 47 0 3 -46 -17 -102 -44 -57 -27 -139 -59 -183 -70 -44 -12 -105 -30
-136 -39 l-56 -16 17 55 c19 61 65 156 102 210 146 212 160 235 118 190 -23
-25 -49 -57 -58 -72 -9 -16 -23 -28 -31 -28 -8 0 -12 -3 -8 -6 8 -9 -41 -56
-52 -50 -5 3 -11 -3 -14 -14 -3 -13 -14 -20 -31 -20 -14 0 -30 -8 -35 -17 -6
-10 -11 -14 -11 -9 0 5 -11 -1 -25 -14 -20 -19 -27 -21 -40 -10 -9 8 -15 8
-15 2 0 -6 -9 -14 -20 -17 -11 -4 -18 -11 -15 -16 4 -5 -1 -9 -9 -9 -9 0 -16
4 -16 8 0 5 -7 17 -15 28 -12 14 -14 15 -9 2 4 -13 1 -15 -15 -11 -17 4 -21 1
-21 -17 0 -19 -2 -20 -15 -10 -12 10 -16 9 -21 -4 -8 -20 -31 -21 -50 -1 -8 8
-20 12 -28 9 -14 -6 -16 2 -16 99 -1 223 145 457 344 551 112 53 302 70 393
35 18 -6 31 -1 63 26 51 43 98 53 134 30 23 -15 29 -16 49 -3 12 8 45 22 73
32 66 22 102 61 157 172 57 113 65 121 108 98 31 -16 36 -16 80 0 149 54 425
70 515 31z m-46 -1289 c0 -2 -7 -7 -16 -10 -8 -3 -12 -2 -9 4 6 10 25 14 25 6z
m130 -346 c0 -5 -4 -10 -10 -10 -5 0 -10 5 -10 10 0 6 5 10 10 10 6 0 10 -4
10 -10z m-130 -284 c0 -3 -4 -8 -10 -11 -5 -3 -10 -1 -10 4 0 6 5 11 10 11 6
0 10 -2 10 -4z m-905 -705 c-3 -6 -11 -11 -16 -11 -5 0 -4 6 3 14 14 16 24 13
13 -3z m165 -151 c0 -5 -2 -10 -4 -10 -3 0 -8 5 -11 10 -3 6 -1 10 4 10 6 0
11 -4 11 -10z m1090 -320 c0 -5 -4 -10 -10 -10 -5 0 -10 5 -10 10 0 6 5 10 10
10 6 0 10 -4 10 -10z m83 -57 c-7 -2 -19 -2 -25 0 -7 3 -2 5 12 5 14 0 19 -2
13 -5z m-856 -105 c-3 -7 -5 -2 -5 12 0 14 2 19 5 13 2 -7 2 -19 0 -25z m10
-50 c-3 -8 -6 -5 -6 6 -1 11 2 17 5 13 3 -3 4 -12 1 -19z m172 -87 c23 -32 27
-98 5 -80 -10 8 -11 15 -1 29 6 11 8 23 4 27 -5 4 -12 1 -17 -7 -7 -12 -10
-11 -16 5 -4 11 -12 23 -17 26 -5 4 -6 21 -2 40 7 33 8 33 16 10 5 -13 18 -35
28 -50z m2936 49 c3 -5 -1 -10 -10 -10 -9 0 -13 5 -10 10 3 6 8 10 10 10 2 0
7 -4 10 -10z m-2865 -142 c0 -5 -4 -8 -10 -8 -5 0 -10 7 -10 15 0 8 -5 15 -11
15 -5 0 -7 5 -4 11 7 10 34 -16 35 -33z m140 12 c0 -5 -4 -10 -10 -10 -5 0
-10 5 -10 10 0 6 5 10 10 10 6 0 10 -4 10 -10z m1626 -368 c-15 -15 -15 -15
-4 10 7 15 15 23 17 17 2 -6 -4 -18 -13 -27z m274 28 c0 -5 -4 -10 -10 -10 -5
0 -10 5 -10 10 0 6 5 10 10 10 6 0 10 -4 10 -10z m-1743 -1484 c4 -5 2 -6 -4
-2 -9 5 -13 0 -14 -16 -1 -17 -3 -18 -6 -5 -2 9 -9 17 -14 17 -5 0 -10 -8 -10
-17 -1 -17 -2 -17 -6 0 -2 9 -9 17 -14 17 -5 0 -8 -4 -6 -9 1 -5 -2 -9 -7 -9
-5 0 -12 -6 -17 -14 -6 -9 -8 -6 -6 9 0 12 5 19 9 17 4 -3 8 -1 8 5 0 18 72
23 87 7z m62 -4 c-7 -3 -17 -10 -21 -16 -5 -7 -8 -5 -8 5 0 22 9 29 28 21 13
-5 14 -6 1 -10z m765 -48 c3 -8 2 -12 -4 -9 -6 3 -10 10 -10 16 0 14 7 11 14
-7z m121 6 c-3 -5 -14 -10 -23 -9 -14 0 -13 2 3 9 27 11 27 11 20 0z m-790
-30 c-4 -6 -1 -19 6 -28 12 -16 12 -16 -5 0 -16 14 -15 38 0 38 3 0 2 -5 -1
-10z m1010 -19 c3 -9 3 -12 -1 -8 -4 4 -13 2 -21 -5 -11 -8 -12 -7 -7 5 4 12
0 14 -18 10 -17 -4 -20 -2 -9 5 21 15 49 11 56 -7z m-809 -34 c3 -10 0 -24 -6
-31 -10 -8 -11 -8 -6 2 4 7 2 12 -6 12 -10 0 -9 3 2 11 13 9 13 10 0 6 -8 -2
-13 -12 -12 -22 3 -16 1 -17 -12 -6 -9 8 -16 10 -17 5 0 -5 -4 0 -9 11 l-9 20
0 -20 c-1 -17 -3 -17 -11 -5 -14 21 -12 28 8 33 41 10 72 4 78 -16z m546 -9
c-8 -8 -9 -4 -5 13 4 13 8 18 11 10 2 -7 -1 -18 -6 -23z m198 17 c14 -16 10
-18 -14 -9 -9 3 -16 10 -16 15 0 14 16 11 30 -6z m-650 -11 c0 -9 -5 -12 -12
-8 -7 5 -9 2 -5 -8 4 -11 0 -15 -10 -14 -9 2 -20 12 -24 23 -6 17 -3 20 22 21
19 0 29 -4 29 -14z m50 6 c0 -5 -2 -10 -4 -10 -3 0 -8 5 -11 10 -3 6 -1 10 4
10 6 0 11 -4 11 -10z m709 -13 c6 -8 7 -18 3 -22 -4 -5 1 -5 11 -2 23 8 22 0
-2 -12 -15 -9 -18 -7 -17 11 0 12 -5 23 -13 26 -9 3 -11 0 -6 -8 5 -9 4 -11
-4 -6 -12 8 -6 26 8 26 5 0 14 -6 20 -13z m-954 -29 c-8 -44 -12 -45 -17 -4
-3 25 0 36 9 36 9 0 12 -9 8 -32z m605 -8 c0 -5 -2 -10 -4 -10 -3 0 -8 5 -11
10 -3 6 -1 10 4 10 6 0 11 -4 11 -10z m420 -21 c0 -5 -8 -9 -17 -9 -15 0 -16
2 -3 10 10 6 11 10 3 10 -7 0 -13 5 -13 11 0 8 5 8 15 -1 8 -7 15 -16 15 -21z
m-486 5 c5 -14 4 -15 -8 -5 -11 9 -15 9 -18 0 -3 -8 -9 -9 -17 -5 -11 7 -11
10 0 17 21 13 36 11 43 -7z m551 -3 c-3 -5 -1 -12 5 -16 5 -3 10 -10 10 -16 0
-5 -8 -1 -18 9 -12 11 -14 20 -8 24 15 10 18 10 11 -1z m69 -7 c9 -24 0 -29
-18 -11 -8 8 -12 17 -9 21 11 10 21 7 27 -10z m64 4 c1 -7 4 -25 8 -40 5 -22
3 -26 -12 -24 -18 3 -27 30 -18 59 6 20 20 23 22 5z m-794 -6 c3 -5 -1 -9 -9
-9 -8 0 -12 4 -9 9 3 4 7 8 9 8 2 0 6 -4 9 -8z m-150 -44 c-5 -8 -1 -9 12 -4
15 6 17 5 6 -5 -17 -18 -48 12 -38 38 7 17 8 17 17 0 6 -9 7 -22 3 -29z m24
17 c-3 -3 -9 2 -12 12 -6 14 -5 15 5 6 7 -7 10 -15 7 -18z"/>
<path d="M2620 5201 c0 -21 51 -131 61 -131 5 0 9 3 9 8 0 4 3 17 6 30 4 13 2
22 -5 22 -7 0 -9 -4 -6 -10 3 -5 2 -10 -4 -10 -6 0 -22 24 -35 53 -14 28 -26
46 -26 38z"/>
<path d="M2671 4731 c-1 -15 -6 -21 -14 -18 -9 3 -13 -4 -13 -23 0 -16 3 -27
8 -24 5 3 6 10 2 15 -3 6 2 16 11 23 10 7 15 20 12 32 -4 16 -5 15 -6 -5z"/>
<path d="M2440 4690 c0 -5 4 -10 9 -10 6 0 13 5 16 10 3 6 -1 10 -9 10 -9 0
-16 -4 -16 -10z"/>
<path d="M2306 4458 c-29 -31 -35 -43 -24 -49 19 -13 33 -5 33 18 0 12 9 30
19 42 11 12 17 23 14 26 -2 2 -21 -14 -42 -37z m4 -38 c0 -5 -4 -10 -10 -10
-5 0 -10 5 -10 10 0 6 5 10 10 10 6 0 10 -4 10 -10z"/>
<path d="M1991 3794 c0 -11 3 -14 6 -6 3 7 2 16 -1 19 -3 4 -6 -2 -5 -13z"/>
<path d="M846 3394 c-20 -14 -19 -15 22 -18 7 -1 16 -6 20 -11 11 -15 39 -14
39 1 0 8 -11 14 -23 14 -13 0 -27 6 -31 14 -7 13 -11 13 -27 0z"/>
<path d="M2150 3348 c14 -16 13 -31 -2 -22 -7 5 -8 3 -3 -5 5 -9 10 -10 18 -2
8 8 6 15 -6 26 -9 8 -12 10 -7 3z"/>
<path d="M4725 3297 c22 -25 42 -43 44 -41 7 6 -53 77 -69 82 -8 3 4 -15 25
-41z"/>
<path d="M5251 3325 c2 -33 13 -60 27 -62 16 -4 15 1 -8 44 -13 25 -20 31 -19
18z"/>
<path d="M3267 3240 c-9 -35 -9 -40 5 -40 6 0 23 -10 37 -22 l26 -23 -21 25
c-12 14 -26 38 -31 55 l-9 29 -7 -24z"/>
<path d="M1145 3220 c-3 -5 -1 -10 4 -10 6 0 11 5 11 10 0 6 -2 10 -4 10 -3 0
-8 -4 -11 -10z"/>
<path d="M1150 3180 c0 -5 5 -10 11 -10 5 0 7 5 4 10 -3 6 -8 10 -11 10 -2 0
-4 -4 -4 -10z"/>
<path d="M880 3141 c0 -6 4 -13 10 -16 6 -3 7 1 4 9 -7 18 -14 21 -14 7z"/>
<path d="M3371 2993 c-1 -23 4 -45 9 -48 6 -3 10 -16 10 -27 0 -29 15 -12 15
17 1 16 -3 21 -14 17 -10 -4 -13 -1 -8 10 3 9 2 29 -3 45 -8 26 -8 25 -9 -14z"/>
<path d="M5459 2977 c-17 -13 -21 -59 -4 -50 27 15 43 36 38 49 -6 17 -13 17
-34 1z"/>
<path d="M1927 2948 c4 -23 4 -23 -12 -3 -17 20 -17 20 -10 -5 4 -14 9 -27 11
-29 7 -7 21 12 29 37 4 16 2 22 -8 22 -10 0 -14 -7 -10 -22z"/>
<path d="M1789 2901 c6 -10 7 -22 3 -26 -4 -5 -1 -5 6 -1 17 10 15 33 -3 40
-12 4 -13 2 -6 -13z"/>
<path d="M1762 2869 c-1 -21 3 -39 8 -39 6 0 11 3 11 8 6 33 4 49 -6 59 -9 8
-12 2 -13 -28z"/>
<path d="M3391 2857 c-8 -20 -8 -34 -1 -47 11 -21 4 -64 -14 -92 -18 -26 -108
-98 -140 -111 l-29 -13 62 -26 c62 -27 69 -25 62 15 -1 4 7 11 16 14 20 7 48
42 48 59 0 7 9 20 21 30 11 11 14 15 7 10 -11 -7 -12 -4 -5 15 9 27 9 86 -1
96 -4 3 -2 12 5 20 9 11 7 12 -8 6 -16 -6 -17 -4 -7 8 7 9 9 20 3 29 -7 11
-11 8 -19 -13z"/>
<path d="M1965 2645 c10 -69 15 -74 37 -31 11 21 17 40 14 44 -3 3 -6 0 -6 -7
0 -7 -12 1 -26 16 l-27 28 8 -50z"/>
<path d="M3408 2663 c7 -3 16 -2 19 1 4 3 -2 6 -13 5 -11 0 -14 -3 -6 -6z"/>
<path d="M2530 2530 c0 -5 5 -10 10 -10 6 0 10 5 10 10 0 6 -4 10 -10 10 -5 0
-10 -4 -10 -10z"/>
<path d="M2738 2493 c7 -3 16 -2 19 1 4 3 -2 6 -13 5 -11 0 -14 -3 -6 -6z"/>
<path d="M5230 2399 c0 -5 5 -7 10 -4 6 3 10 8 10 11 0 2 -4 4 -10 4 -5 0 -10
-5 -10 -11z"/>
<path d="M1834 2389 c-3 -6 -2 -15 3 -20 5 -5 9 -1 9 11 0 23 -2 24 -12 9z"/>
<path d="M3886 2311 c-5 -8 -2 -20 8 -29 17 -17 19 -9 7 22 -6 15 -10 16 -15
7z"/>
<path d="M2526 2193 c-6 -14 -5 -15 5 -6 7 7 10 15 7 18 -3 3 -9 -2 -12 -12z"/>
<path d="M3517 2136 c-3 -7 15 -33 42 -60 48 -47 61 -55 61 -34 0 6 -3 8 -7 5
-3 -4 -15 0 -25 9 -14 14 -16 20 -6 33 7 9 8 13 4 9 -5 -4 -15 -3 -23 3 -7 6
-13 8 -13 3 0 -11 -20 18 -20 30 0 4 7 5 16 2 8 -3 12 -2 9 4 -9 15 -32 12
-38 -4z"/>
<path d="M3713 2073 c4 -3 0 -17 -8 -29 -8 -13 -11 -25 -6 -28 5 -3 14 8 20
26 14 38 14 38 -1 38 -6 0 -8 -3 -5 -7z"/>
<path d="M3666 2038 c3 -5 10 -6 15 -3 13 9 11 12 -6 12 -8 0 -12 -4 -9 -9z"/>
<path d="M3629 2023 c-12 -16 -12 -17 2 -6 9 7 20 9 24 5 5 -4 5 -1 1 6 -9 16
-11 15 -27 -5z"/>
<path d="M1665 5641 c-43 -19 -100 -78 -116 -118 -24 -63 1 -186 44 -222 9 -7
14 -18 10 -24 -4 -6 -1 -7 7 -2 10 6 12 4 7 -8 -3 -9 -1 -19 5 -23 7 -5 8 -2
3 6 -6 10 -3 12 14 7 13 -3 46 6 84 23 34 15 97 35 140 45 91 20 99 30 100
120 1 50 -5 71 -26 108 -15 25 -36 52 -47 60 -11 8 -18 17 -15 20 3 4 2 5 -1
2 -4 -2 -19 2 -35 10 -38 20 -126 18 -174 -4z m155 -61 c11 -11 20 -24 20 -30
0 -12 -37 -50 -48 -50 -20 0 -52 34 -52 55 0 43 47 58 80 25z"/>
<path d="M896 5150 c-56 -52 -81 -99 -62 -119 22 -21 67 7 96 61 14 25 33 55
43 65 23 26 22 33 -8 33 -16 0 -42 -15 -69 -40z"/>
<path d="M1908 5113 c-40 -34 -41 -36 -14 -29 33 8 76 35 76 47 0 22 -22 16
-62 -18z"/>
<path d="M806 5113 c-6 -14 -5 -15 5 -6 7 7 10 15 7 18 -3 3 -9 -2 -12 -12z"/>
<path d="M1752 2388 c7 -15 15 -23 17 -17 2 6 -4 18 -13 27 -15 15 -15 15 -4
-10z"/>
<path d="M3613 241 c0 -11 5 -18 9 -15 4 3 5 11 1 19 -7 21 -12 19 -10 -4z"/>
</g>
</svg>
