<?xml version="1.0" standalone="no"?>
<!DOCTYPE svg PUBLIC "-//W3C//DTD SVG 20010904//EN"
 "http://www.w3.org/TR/2001/REC-SVG-20010904/DTD/svg10.dtd">
<svg version="1.0" xmlns="http://www.w3.org/2000/svg"
 width="500.000000pt" height="500.000000pt" viewBox="0 0 500.000000 500.000000"
 preserveAspectRatio="xMidYMid meet">
<metadata>
Created by potrace 1.11, written by Peter Selinger 2001-2013
</metadata>
<g transform="translate(0.000000,500.000000) scale(0.100000,-0.100000)"
fill="#000000" stroke="none">
<path d="M1430 4969 c-49 -6 -162 -56 -198 -88 -12 -11 -29 -36 -38 -56 -8
-21 -26 -54 -38 -74 -13 -20 -27 -47 -31 -61 -14 -44 -66 -108 -94 -115 -14
-3 -45 -16 -69 -28 -33 -16 -45 -18 -54 -9 -26 26 -128 -3 -128 -37 0 -9 -7
-11 -22 -7 -13 4 -61 9 -108 13 -207 14 -384 -92 -475 -284 -44 -91 -56 -153
-54 -263 3 -123 21 -182 84 -265 41 -54 85 -93 158 -137 52 -33 69 -38 119
-38 32 0 58 4 58 9 0 5 -15 19 -34 32 -18 12 -39 31 -45 42 -11 17 -10 18 21
14 72 -9 188 19 288 72 107 57 197 105 205 111 22 16 223 62 270 63 81 0 164
-57 157 -108 -8 -53 -44 -104 -112 -155 -73 -56 -86 -65 -101 -75 -87 -54
-122 -81 -152 -114 -49 -54 -87 -91 -95 -91 -18 0 -171 -163 -173 -184 0 -6
-2 -18 -5 -26 -15 -56 -16 -73 -5 -66 6 4 11 3 11 -3 0 -5 -5 -13 -11 -16 -17
-11 -76 -145 -99 -229 -33 -119 -36 -165 -12 -217 11 -24 23 -69 26 -99 6 -51
13 -79 50 -207 17 -62 60 -144 85 -167 10 -9 25 -31 31 -47 7 -16 16 -29 21
-29 5 0 9 -6 9 -13 0 -20 61 -82 103 -105 21 -11 52 -37 70 -59 57 -68 147
-151 198 -183 47 -28 50 -29 44 -10 -6 19 -4 20 12 12 33 -19 83 -71 83 -86 0
-9 4 -16 9 -16 4 0 20 -18 35 -40 33 -50 158 -178 206 -210 19 -13 37 -27 40
-30 12 -12 131 -90 139 -90 5 0 11 -3 13 -7 4 -11 111 -65 179 -92 57 -22 97
-66 114 -123 19 -61 82 -172 111 -196 29 -24 32 -32 29 -68 -1 -23 -5 -50 -9
-60 -3 -11 -8 -35 -11 -54 -19 -113 -13 -101 -69 -139 -53 -37 -117 -46 -304
-43 -98 1 -139 -2 -155 -12 -12 -8 -44 -17 -70 -21 -58 -8 -112 -53 -121 -100
-9 -46 4 -58 41 -40 34 17 81 13 116 -9 12 -8 39 -13 60 -12 41 2 41 1 37 -86
-2 -44 -4 -43 43 -23 41 17 97 12 134 -12 14 -9 39 -14 66 -12 42 4 43 4 39
-25 -6 -36 15 -50 45 -31 26 18 74 20 90 4 6 -6 39 -11 72 -11 49 0 70 5 99
24 20 14 55 31 77 38 43 14 224 105 239 121 6 5 18 9 28 9 18 0 134 -54 198
-92 40 -23 97 -20 125 8 17 17 40 21 73 10 18 -6 22 -4 22 14 0 24 -42 70 -63
70 -8 0 -27 6 -42 14 -15 8 -37 13 -48 10 -53 -10 -86 -6 -130 15 -74 36 -93
86 -70 188 17 75 77 199 105 217 10 6 18 17 18 24 0 9 6 12 15 8 16 -6 102 37
121 60 6 8 15 14 19 14 13 0 69 63 84 95 8 17 17 59 20 95 l6 64 70 19 c39 11
93 25 120 32 28 8 84 21 125 31 84 19 142 48 215 109 62 52 92 68 111 61 19
-7 80 24 119 61 40 37 111 132 120 161 3 12 10 22 15 22 5 0 25 13 43 30 65
57 153 273 182 448 3 17 15 58 27 90 12 31 23 62 24 67 1 6 19 48 41 95 22 47
43 92 46 100 3 8 6 10 6 4 1 -5 -19 -70 -44 -143 -55 -164 -58 -214 -16 -292
16 -30 35 -53 42 -51 6 2 29 -4 51 -13 53 -21 69 -19 31 5 -93 56 -49 147 105
214 23 11 42 23 42 28 0 4 6 8 14 8 35 0 169 168 181 229 2 9 11 36 20 61 17
43 23 135 27 380 1 76 -2 92 -30 150 -33 69 -57 100 -112 141 -74 55 -211 114
-286 123 -16 2 -49 10 -74 16 -63 18 -88 18 -143 4 -85 -22 -130 -66 -192
-186 -30 -58 -56 -119 -59 -135 -2 -15 -5 -30 -5 -32 -1 -2 -15 10 -32 27 -54
53 -91 51 -199 -8 -19 -10 -40 -19 -46 -20 -5 0 -44 22 -85 48 -41 27 -109 68
-151 91 -43 24 -78 47 -78 51 0 5 -10 12 -22 16 -12 3 -28 12 -35 19 -14 15
-189 71 -243 79 -144 21 -473 28 -599 13 -53 -7 -67 -5 -82 9 -25 23 -57 22
-229 -3 -103 -15 -204 -4 -240 27 -37 32 -26 109 22 151 10 9 18 19 18 22 0
15 65 144 79 157 10 8 28 31 41 50 30 42 130 238 130 254 0 7 9 29 20 51 19
37 28 78 48 208 12 77 8 177 -14 352 -9 65 -73 222 -116 284 -10 13 -15 28
-12 32 7 11 -77 89 -96 89 -9 0 -20 4 -26 9 -5 5 -38 19 -74 31 -36 12 -85 31
-110 43 -39 18 -62 21 -205 21 -88 1 -180 -2 -205 -5z m1143 -4186 c4 -16 22
-45 42 -65 19 -20 35 -43 35 -52 0 -16 -34 -159 -45 -191 -16 -46 -39 -90 -49
-97 -17 -11 -75 -9 -98 3 -35 19 -78 68 -79 92 -5 77 5 141 31 195 11 23 20
45 20 50 0 13 45 49 71 57 13 4 29 14 37 21 20 21 29 17 35 -13z m-188 -463
c4 -6 -6 -11 -22 -11 -15 -1 -38 -3 -50 -4 -25 -2 -31 10 -10 18 22 9 76 7 82
-3z"/>
</g>
</svg>
